# xmcd
#
# Track frame offsets:
# 150
# 14645
# 25900
# 39061
# 53163
# 66982
# 80953
# 95216
# 105286
# 120150
# 134567
# 149295
# 163338
# 175941
# 184800
# 196917
# 209400
# 220416
# 233221
# 245381
#
# Disc length: 3425 seconds
#
# Revision: 1
# Processed by: cddbd v1.5.1PL0 Copyright (c) Steve Scherf et al.
# Submitted via: CedeCatalogueitor 2.6.0.4 http://personales.ya.com/cdcatalogueitor
#
DISCID=260d5f14
DTITLE=PAQUITA RICO - Hiatoria De La Tonadilla, La Copla Y El Cuplé
DYEAR=1998
DGENRE=
TTITLE0=Chuflillas Del Torerillo
TTITLE1=La Molinera Y El Corregidor
TTITLE2=Niña Rosa
TTITLE3=Ay Cartujano
TTITLE4=Lola Triana
TTITLE5=La Honra
TTITLE6=¡Eh, Toro!
TTITLE7=Ay Con El Ay
TTITLE8=La Cruz De Brillantes
TTITLE9=La Camisera
TTITLE10=¡Ay, Malvaloca!
TTITLE11=La Caoba
TTITLE12=Mi Niño
TTITLE13=Deleitame
TTITLE14=Acuarela Del Rio
TTITLE15=No Me Preguntes
TTITLE16=Por Tu Voz
TTITLE17=El Arbol Grabado
TTITLE18=María De Los Pecados
TTITLE19=Tu Amor Verdadero
EXTD=
EXTT0=
EXTT1=
EXTT2=
EXTT3=
EXTT4=
EXTT5=
EXTT6=
EXTT7=
EXTT8=
EXTT9=
EXTT10=
EXTT11=
EXTT12=
EXTT13=
EXTT14=
EXTT15=
EXTT16=
EXTT17=
EXTT18=
EXTT19=
PLAYORDER=
